<!DOCTYPE svg PUBLIC "-//W3C//DTD SVG 1.1//EN" "http://www.w3.org/Graphics/SVG/1.1/DTD/svg11.dtd">
<!-- Uploaded to: SVG Repo, www.svgrepo.com, Transformed by: SVG Repo Mixer Tools -->
<svg fill="#F6F7FB" height="800px" width="800px" version="1.1" id="Layer_1" xmlns="http://www.w3.org/2000/svg" xmlns:xlink="http://www.w3.org/1999/xlink" viewBox="0 0 510.389 510.389" xml:space="preserve" stroke="#F6F7FB">
<g id="SVGRepo_bgCarrier" stroke-width="0"/>
<g id="SVGRepo_tracerCarrier" stroke-linecap="round" stroke-linejoin="round"/>
<g id="SVGRepo_iconCarrier"> <g> <g> <path d="M500.869,195.484L319.178,13.792c-3.379-3.388-7.876-5.257-12.655-5.257h-0.017c-4.787,0-9.284,1.869-12.672,5.24 l-5.76,5.768c-3.644,3.661-5.538,8.721-5.197,13.85l4.599,68.847l-42.65,42.65l93.517,14.814l20.523,20.523l-128.947-20.429 l-0.444,0.444L157.863,73.73c10.923-10.274,16.529-20.668,17.075-31.616c0.632-12.851-5.768-25.813-19.567-39.612 c-3.337-3.336-8.738-3.336-12.066,0c-3.336,3.337-3.336,8.738,0,12.066c10.197,10.197,14.967,18.935,14.583,26.701 c-0.299,6.135-3.934,12.484-10.948,19.268l-5.734-6.938c-9.634-9.643-22.494-14.95-36.207-14.95 c-13.705,0-26.564,5.308-36.198,14.95c-9.643,9.634-14.95,22.494-14.95,36.207c0,13.705,5.308,26.564,15.548,36.736l5.982,4.958 l-6.579,6.579c-9.643,9.634-14.95,22.494-14.95,36.198c0,13.705,5.308,26.564,14.95,36.198c9.634,9.643,22.494,14.95,36.198,14.95 c13.713,0,26.573-5.308,36.207-14.95l13.406-13.406l20.813,17.22l-40.644,40.644l163.354,60.919l5.41,4.471l-5.154,13.824 l-176.87-65.954L97.977,291.74l-68.847-4.591c-5.086-0.324-10.189,1.545-13.875,5.205l-5.734,5.751 c-3.396,3.379-5.248,7.893-5.248,12.681c0,4.787,1.86,9.276,5.248,12.646l181.7,181.7c3.379,3.388,7.885,5.257,12.663,5.257 c4.386-0.043,9.284-1.86,12.672-5.248l5.76-5.76c3.644-3.661,5.547-8.713,5.197-13.841l-4.599-68.855l89.242-89.233l107.204,88.73 c1.587,1.306,3.516,1.954,5.444,1.954c2.193,0,4.378-0.845,6.033-2.5c3.115-3.106,3.354-8.081,0.538-11.477l-88.73-107.196 l52.727-52.727l-118.366-26.573l-16.708-20.181l0.222-0.998l149.137,33.468l2.765-2.765l68.838,4.591 c0.401,0.026,0.802,0.043,1.212,0.043c4.719,0,9.267-1.877,12.663-5.248l5.726-5.743c3.396-3.379,5.257-7.876,5.257-12.655 C506.117,203.377,504.257,198.871,500.869,195.484z M204.49,493.058l-1.203,0.009l-181.7-181.7l0.009-1.195l5.717-5.734 c0.171-0.179,0.393-0.265,0.614-0.265c0.017,0,0.043,0.008,0.06,0.008l69.521,4.634l5.214,5.214l2.116,2.116l100.992,100.992 l4.403,70.187L204.49,493.058z M262.695,370.153l-121.173-41.455l-27.418-27.418l154.103,52.719L262.695,370.153z M129.14,198.411 c-6.417,6.417-14.984,9.95-24.141,9.95c-9.148,0-17.715-3.533-24.132-9.95c-6.417-6.417-9.95-14.985-9.95-24.132 c0-9.148,3.533-17.715,9.95-24.132l7.723-7.723l52.821,43.725L129.14,198.411z M270.017,235.957l60.51,73.122l30.054,36.309 l-36.309-30.046l0.009-0.009L187.542,202.174l-0.017,0.017l-86.844-71.859l16.393-16.393l6.033,6.033 c1.664,1.664,3.849,2.5,6.033,2.5c2.176,0,4.361-0.836,6.033-2.5c3.328-3.337,3.328-8.738,0-12.066l-24.141-24.132 c-3.328-3.337-8.73-3.337-12.066,0c-3.328,3.328-3.328,8.73,0,12.066l6.033,6.033l-17.527,17.528l-6.605-5.461 c-6.417-6.417-9.95-14.985-9.95-24.132c0-9.156,3.533-17.724,9.95-24.141c6.417-6.417,14.984-9.95,24.132-9.95 c9.156,0,17.724,3.533,23.595,9.361L270.017,235.957z M488.795,208.753l-5.717,5.734c-0.179,0.179-0.41,0.307-0.666,0.256 l-69.53-4.634L304.56,101.788l-4.403-70.187l5.743-5.743l1.203-0.009l181.7,181.7L488.795,208.753z"/> </g> </g> </g>
</svg>